<svg id="Layer_1" data-name="Layer 1" xmlns="http://www.w3.org/2000/svg" viewBox="0 0 134.13 32.74"><defs><style>.cls-1{fill:#fff;}</style></defs><title>zap</title><path class="cls-1" d="M258.17,447.79a16.3,16.3,0,1,0-16.3-16.3A16.3,16.3,0,0,0,258.17,447.79Zm0-23.79a7.5,7.5,0,1,1-7.5,7.49A7.49,7.49,0,0,1,258.17,424Z" transform="translate(-241.87 -415.05)"/><path class="cls-1" d="M292.57,440a7.49,7.49,0,0,1,7.49,7.49h8.8a16.3,16.3,0,0,0-32.59,0h8.8A7.49,7.49,0,0,1,292.57,440Z" transform="translate(-241.87 -415.05)"/><path class="cls-1" d="M292.57,422.55a7.5,7.5,0,0,1-7.5-7.5h-8.8a16.3,16.3,0,1,0,32.59,0h-8.8A7.49,7.49,0,0,1,292.57,422.55Z" transform="translate(-241.87 -415.05)"/><path class="cls-1" d="M325.31,447.79a16.3,16.3,0,1,0-16.3-16.3A16.29,16.29,0,0,0,325.31,447.79Zm0-23.79a7.5,7.5,0,1,1-7.5,7.49A7.49,7.49,0,0,1,325.31,424Z" transform="translate(-241.87 -415.05)"/><path class="cls-1" d="M359.7,440a7.49,7.49,0,0,1,7.5,7.49H376a16.3,16.3,0,0,0-32.59,0h8.8A7.49,7.49,0,0,1,359.7,440Z" transform="translate(-241.87 -415.05)"/><path class="cls-1" d="M359.7,422.55a7.5,7.5,0,0,1-7.49-7.5h-8.8a16.3,16.3,0,1,0,32.59,0h-8.8A7.5,7.5,0,0,1,359.7,422.55Z" transform="translate(-241.87 -415.05)"/></svg>