<svg id="Layer_1" data-name="Layer 1" xmlns="http://www.w3.org/2000/svg" viewBox="0 0 925 521"><defs><style>.cls-1{fill:#fff;}.cls-2{fill:#ffbc6c;}</style></defs><title>no-img-bg</title><rect class="cls-1" width="925" height="521"/><path class="cls-2" d="M668.88,540.88a61,61,0,1,0-61-61A61,61,0,0,0,668.88,540.88Zm0-89.07a28.06,28.06,0,1,1-28.06,28.06A28.06,28.06,0,0,1,668.88,451.81Z" transform="translate(-403.5 -219.5)"/><path class="cls-2" d="M797.66,528.59a28.06,28.06,0,0,1,28.06,28.06h32.94a61,61,0,1,0-122,0h33A28.06,28.06,0,0,1,797.66,528.59Z" transform="translate(-403.5 -219.5)"/><path class="cls-2" d="M797.66,446.38a28.06,28.06,0,0,1-28.06-28.06h-33a61,61,0,0,0,122,0H825.72A28.06,28.06,0,0,1,797.66,446.38Z" transform="translate(-403.5 -219.5)"/><path class="cls-2" d="M920.22,540.88a61,61,0,1,0-61-61A61,61,0,0,0,920.22,540.88Zm0-89.07a28.06,28.06,0,1,1-28.07,28.06A28.06,28.06,0,0,1,920.22,451.81Z" transform="translate(-403.5 -219.5)"/><path class="cls-2" d="M1049,511.78a28.06,28.06,0,0,1,28.06,28.06H1110a61,61,0,1,0-122,0h32.94A28.06,28.06,0,0,1,1049,511.78Z" transform="translate(-403.5 -219.5)"/><path class="cls-2" d="M1049,431.11a28.06,28.06,0,0,1-28.07-28.06H988a61,61,0,1,0,122,0h-32.94A28.06,28.06,0,0,1,1049,431.11Z" transform="translate(-403.5 -219.5)"/></svg>