<svg id="Layer_1" data-name="Layer 1" xmlns="http://www.w3.org/2000/svg" viewBox="0 0 346 521"><defs><style>.cls-1{fill:#ffbc6c;}.cls-2{fill:#fff;}</style></defs><title>no-img</title><rect class="cls-1" width="346" height="521"/><path class="cls-2" d="M639.84,475.28a32,32,0,1,0-32-32A32,32,0,0,0,639.84,475.28Zm0-46.68a14.71,14.71,0,1,1-14.7,14.71A14.72,14.72,0,0,1,639.84,428.6Z" transform="translate(-572 -195)"/><path class="cls-2" d="M707.33,473a14.7,14.7,0,0,1,14.7,14.7h17.26a32,32,0,1,0-63.93,0h17.26A14.7,14.7,0,0,1,707.33,473Z" transform="translate(-572 -195)"/><path class="cls-2" d="M707.33,425.76a14.71,14.71,0,0,1-14.71-14.71H675.36a32,32,0,1,0,63.93,0H722A14.71,14.71,0,0,1,707.33,425.76Z" transform="translate(-572 -195)"/><path class="cls-2" d="M771.55,475.28a32,32,0,1,0-32-32A32,32,0,0,0,771.55,475.28Zm0-46.68a14.71,14.71,0,1,1-14.71,14.71A14.71,14.71,0,0,1,771.55,428.6Z" transform="translate(-572 -195)"/><path class="cls-2" d="M839,460a14.71,14.71,0,0,1,14.71,14.7H871a32,32,0,0,0-63.94,0h17.27A14.7,14.7,0,0,1,839,460Z" transform="translate(-572 -195)"/><path class="cls-2" d="M839,417.76a14.71,14.71,0,0,1-14.7-14.71H807.06a32,32,0,0,0,63.94,0H853.74A14.72,14.72,0,0,1,839,417.76Z" transform="translate(-572 -195)"/></svg>